<?xml version="1.0" encoding="UTF-8"?>
<svg width="172px" height="246px" viewBox="0 0 172 246" version="1.1" xmlns="http://www.w3.org/2000/svg" xmlns:xlink="http://www.w3.org/1999/xlink">
    <!-- Generator: Sketch 46.2 (44496) - http://www.bohemiancoding.com/sketch -->
    <title>Untitled 2</title>
    <desc>Created with Sketch.</desc>
    <defs></defs>
    <g id="Page-1" stroke="none" stroke-width="1" fill="none" fill-rule="evenodd">
        <path d="M159.879,101.649 L151.426,87.68 L166.45,76.73 L167.254,82.049 L159.879,101.649 Z M160.677,115.331 L151.739,172.697 L142.944,167.182 L135.938,114.715 L161.157,112.712 L160.677,115.331 Z M127.847,209.516 L127.847,191.579 L141.523,171.004 L150.419,176.581 L127.847,209.516 Z M125.544,187.841 L112.319,174.58 C112.17,174.428 111.991,174.301 111.799,174.207 L109.292,172.948 L114.808,167.418 C115.183,167.044 115.394,166.538 115.394,166.006 L115.394,154.625 L138.145,168.885 L125.544,187.841 Z M123.857,214.899 L87.929,239.668 L87.929,218.409 L123.857,194.393 L123.857,214.899 Z M86.065,188.709 L85.99,188.569 L72.232,181.674 L68.063,177.496 L68.063,174.564 L76.265,170.45 L95.4,170.45 L103.938,174.732 L103.938,177.664 L99.768,181.842 L86.065,188.709 Z M48.141,214.732 L48.141,194.226 L84.07,218.241 L84.07,239.499 L48.141,214.732 Z M33.856,168.717 L56.605,154.457 L56.605,165.837 C56.605,166.368 56.817,166.875 57.193,167.25 L62.707,172.78 L60.201,174.039 C60.009,174.133 59.83,174.259 59.68,174.413 L46.455,187.673 L33.856,168.717 Z M44.152,209.348 L21.58,176.412 L30.478,170.836 L44.152,191.412 L44.152,209.348 Z M11.322,115.163 L10.843,112.544 L36.062,114.547 L29.056,167.013 L20.259,172.529 L11.322,115.163 Z M4.745,81.88 L5.428,77.358 L20.202,88.127 L12.12,101.481 L4.745,81.88 Z M13.801,67.18 L30.122,71.388 L22.39,84.51 L22.296,84.664 L7.075,73.571 L13.801,67.18 Z M33.136,48.46 L33.149,48.516 L34.556,54.058 C34.703,54.65 34.853,55.25 34.999,55.836 L36.24,61.531 L32.224,67.762 L22.932,65.367 L33.136,48.46 Z M30.465,20.107 L58.853,31.604 L60.759,45.538 L39.452,58.566 L39.217,57.574 L38.838,55.95 C38.848,55.946 38.857,55.941 38.866,55.935 L38.79,55.746 L30.465,20.107 Z M55.163,14.243 L67.16,21.136 L61.162,28.313 L46.39,22.396 L55.163,14.243 Z M85.915,5.001 L86.057,5.001 L108.927,32.272 L107.199,44.816 L86.516,54.131 L86.533,54.192 L86.531,54.192 L86.503,54.179 L86.516,54.131 L64.752,44.29 L63.089,32.218 L85.915,5.001 Z M116.836,14.411 L125.61,22.566 L110.839,28.481 L104.839,21.304 L116.836,14.411 Z M141.535,20.274 L133.209,55.913 L133.133,56.104 C133.143,56.109 133.152,56.113 133.161,56.118 L132.781,57.743 L132.547,58.735 L111.241,45.705 L113.147,31.771 L141.535,20.274 Z M149.068,65.535 L139.777,67.932 L135.761,61.699 L137.002,56.005 C137.146,55.417 137.297,54.818 137.444,54.227 L138.851,48.684 L138.864,48.628 L149.068,65.535 Z M130.687,100.762 L144.333,83.408 L152.622,97.26 L154.668,100.688 L159.518,108.794 L135.357,110.712 L130.687,100.762 Z M132.118,117.949 L138.34,163.978 L115.99,150.29 L132.118,117.949 Z M100.452,123.044 L100.452,111.897 L100.472,108.716 L104.944,104.231 C105.389,105.128 105.939,105.98 106.684,106.726 C110.372,110.425 116.377,110.422 120.065,106.723 C121.402,105.383 122.237,103.738 122.607,102.01 L126.87,102.011 L131.107,111.044 L131.103,111.051 L131.052,111.055 L131.06,111.138 L113.324,146.709 L100.452,123.044 Z M40.941,110.97 L40.948,110.887 L40.898,110.883 L40.894,110.875 L45.13,101.843 L49.393,101.842 C49.763,103.57 50.598,105.216 51.934,106.554 C55.623,110.254 61.627,110.257 65.316,106.558 C66.06,105.812 66.61,104.959 67.055,104.063 L71.528,108.547 L71.548,111.729 L71.548,122.876 L58.674,146.542 L40.941,110.97 Z M39.882,117.781 L56.01,150.121 L33.659,163.81 L39.882,117.781 Z M41.312,100.594 L36.642,110.545 L12.483,108.626 L17.331,100.519 L19.378,97.093 L27.666,83.24 L41.312,100.594 Z M63.717,101.843 C63.455,102.533 63.05,103.174 62.496,103.73 C60.359,105.873 56.888,105.874 54.75,103.73 C54.195,103.174 53.795,102.534 53.529,101.843 L63.717,101.843 Z M71.548,84.78 L71.548,102.915 L68.041,99.399 L67.079,98.433 C66.705,98.058 66.191,97.845 65.666,97.845 L44.991,97.848 L30.056,79.248 L30.838,77.938 L33.234,73.943 L35.32,70.447 L37.717,66.453 L38.085,65.887 L71.548,84.78 Z M118.471,102.011 C118.204,102.704 117.804,103.342 117.25,103.898 C115.111,106.042 111.642,106.04 109.503,103.898 C108.949,103.342 108.546,102.701 108.283,102.011 L118.471,102.011 Z M106.333,98.015 C105.809,98.013 105.296,98.228 104.922,98.601 L103.959,99.567 L100.452,103.083 L100.452,86.215 L100.451,84.949 L133.914,66.057 L134.283,66.621 L136.68,70.616 L138.766,74.112 L141.16,78.106 L141.944,79.416 L127.008,98.016 L106.333,98.015 Z M108.93,32.254 L108.073,30.39 L108.933,32.228 L108.93,32.254 Z M130.719,62.698 L96.467,83.01 L96.463,84.68 L96.463,123.554 C96.463,123.887 96.553,124.216 96.71,124.508 L108.344,145.892 L103.644,143.107 C103.286,142.896 102.869,142.814 102.459,142.875 L95.68,143.887 L79.706,143.887 L77.291,143.863 L69.542,142.707 C69.131,142.647 68.712,142.728 68.357,142.94 L63.657,145.723 L75.289,124.34 C75.448,124.049 75.537,123.717 75.537,123.386 L75.537,84.51 L75.532,82.843 L41.28,62.531 L63.944,48.671 L81.149,56.45 L85.713,58.568 C86.315,58.841 87.011,58.822 87.598,58.516 L92.393,56.26 L108.374,49.034 L130.719,62.698 Z M66.464,170.895 L60.588,165.011 L60.588,151.751 L69.643,146.388 L73.713,146.994 C73.78,147.091 73.854,147.186 73.938,147.271 L83.89,159.045 L83.997,159.295 L83.997,162.104 L75.562,166.337 L66.464,170.895 Z M64.662,179.734 L69.642,184.728 C69.792,184.883 69.968,185.007 70.158,185.104 L84.07,192.08 L84.07,213.55 L49.41,190.358 L62.271,177.468 L64.079,176.561 L64.079,178.32 C64.079,178.854 64.287,179.357 64.662,179.734 L64.662,179.734 Z M107.92,176.729 L109.729,177.635 L122.589,190.526 L87.929,213.72 L87.929,192.249 L101.843,185.272 C102.031,185.176 102.208,185.051 102.357,184.897 L107.338,179.902 C107.712,179.524 107.92,179.021 107.92,178.49 L107.92,176.729 Z M105.534,171.065 L104.132,170.358 L96.438,166.505 L88.004,162.114 L88.004,159.339 L98.063,147.438 C98.146,147.354 98.22,147.259 98.286,147.163 L102.355,146.556 L111.411,151.919 L111.411,165.179 L105.534,171.065 Z M158.199,67.348 L164.396,73.238 L149.337,84.214 L141.879,71.556 L158.199,67.348 Z M171.312,81.966 L170.055,73.641 C169.987,73.198 169.773,72.788 169.449,72.48 L160.159,63.651 C159.655,63.174 158.943,62.989 158.273,63.162 L153.096,64.497 L140.2,42.983 L146.214,17.582 C146.36,16.868 146.109,16.143 145.558,15.677 C145.02,15.226 144.227,15.099 143.581,15.363 L129.148,21.147 L118.25,11.018 C117.709,10.519 116.855,10.42 116.225,10.785 L103.6,18.019 L102.557,18.581 L87.561,0.668 C87.219,0.26 86.699,0.026 86.125,0.008 L86.125,0.001 L85.846,0.001 L85.843,0.008 C85.271,0.026 84.751,0.261 84.41,0.668 L69.442,18.414 L68.399,17.851 L55.775,10.618 C55.143,10.253 54.29,10.351 53.749,10.85 L42.852,20.98 L28.419,15.193 C27.774,14.932 26.98,15.058 26.441,15.509 C25.892,15.975 25.638,16.701 25.786,17.413 L31.799,42.815 L18.904,64.328 L13.727,62.993 C13.057,62.82 12.345,63.004 11.841,63.482 L2.578,72.285 L2.55,72.312 C2.542,72.32 2.537,72.333 2.527,72.341 C2.45,72.419 2.373,72.498 2.307,72.589 C2.262,72.653 2.23,72.721 2.192,72.788 C2.175,72.818 2.155,72.846 2.14,72.878 C2.051,73.055 1.993,73.238 1.96,73.427 C1.957,73.442 1.947,73.457 1.945,73.473 L0.687,81.796 C0.635,82.139 0.672,82.487 0.794,82.812 L9.475,105.881 L7.67,108.904 L6.593,110.7 L6.934,112.899 L7.555,116.862 L16.79,176.131 L16.793,176.137 C16.829,176.394 16.921,176.649 17.067,176.884 C17.075,176.899 17.094,176.905 17.101,176.917 C17.109,176.926 17.109,176.944 17.116,176.956 L44.506,216.91 C44.546,216.962 44.602,216.997 44.643,217.041 C44.717,217.136 44.797,217.219 44.884,217.291 C44.934,217.333 44.965,217.385 45.023,217.422 L84.855,244.89 L84.88,245.062 C85.223,245.297 85.612,245.417 86.009,245.417 C86.405,245.417 86.794,245.297 87.139,245.062 L126.977,217.591 C127.036,217.554 127.065,217.501 127.114,217.459 C127.203,217.386 127.281,217.303 127.357,217.209 C127.397,217.165 127.455,217.13 127.494,217.078 L154.884,177.124 C154.89,177.112 154.89,177.095 154.898,177.084 C154.906,177.073 154.925,177.067 154.934,177.053 C155.08,176.817 155.171,176.561 155.206,176.305 L155.21,176.299 L164.444,117.031 L165.065,113.066 L165.405,110.867 L164.33,109.073 L162.525,106.049 L171.205,82.981 C171.327,82.656 171.363,82.307 171.312,81.966 L171.312,81.966 Z" id="Fill-17" fill="#9C8E74"></path>
    </g>
</svg>