<svg width="512" height="512" viewBox="0 0 512 512" fill="none" xmlns="http://www.w3.org/2000/svg">
    <path fill-rule="evenodd" clip-rule="evenodd" d="M403.458 213.472L386.621 185.647L416.547 163.836L418.148 174.431L403.458 213.472ZM405.048 240.724L387.244 354.99L369.726 344.005L355.771 239.497L406.004 235.508L405.048 240.724ZM339.655 428.329V392.6L366.895 351.618L384.615 362.726L339.655 428.329ZM335.067 385.155L308.725 358.741C308.428 358.438 308.071 358.185 307.689 357.998L302.695 355.49L313.683 344.475C314.429 343.73 314.85 342.722 314.85 341.662V318.993L360.167 347.397L335.067 385.155ZM331.707 439.051L260.143 488.387V446.042L331.707 398.206V439.051ZM256.43 386.884L256.281 386.605L228.877 372.871L220.573 364.549V358.709L236.91 350.514H275.024L292.031 359.043V364.884L283.725 373.206L256.43 386.884ZM180.891 438.718V397.873L252.456 445.708V488.051L180.891 438.718ZM152.437 347.062L197.75 318.658V341.326C197.75 342.383 198.172 343.393 198.921 344.14L209.904 355.155L204.912 357.663C204.53 357.85 204.174 358.101 203.875 358.408L177.532 384.82L152.437 347.062ZM172.945 427.994L127.984 362.39L145.708 351.283L172.945 392.268V427.994ZM107.552 240.39L106.598 235.173L156.831 239.163L142.876 343.668L125.353 354.655L107.552 240.39ZM94.4514 174.094L95.8118 165.087L125.24 186.537L109.141 213.137L94.4514 174.094ZM112.49 144.814L144.999 153.196L129.598 179.333L129.411 179.64L99.0924 157.544L112.49 144.814ZM151.003 107.526L151.028 107.638L153.831 118.676C154.124 119.856 154.423 121.051 154.713 122.218L157.185 133.562L149.186 145.973L130.677 141.203L151.003 107.526ZM145.682 51.0505L202.227 73.951L206.024 101.706L163.583 127.656L163.115 125.68L162.36 122.445C162.38 122.437 162.398 122.427 162.416 122.415L162.265 122.039L145.682 51.0505ZM194.877 39.3702L218.774 53.1001L206.827 67.3958L177.403 55.6099L194.877 39.3702ZM256.131 20.9613H256.414L301.968 75.2816L298.526 100.268L257.329 118.822L257.362 118.943H257.358L257.303 118.917L257.329 118.822L213.977 99.2199L210.665 75.174L256.131 20.9613ZM317.722 39.7048L335.199 55.9485L305.777 67.7304L293.826 53.4348L317.722 39.7048ZM366.919 51.3831L350.335 122.371L350.184 122.752C350.203 122.762 350.221 122.77 350.239 122.78L349.482 126.017L349.016 127.992L306.578 102.038L310.374 74.2837L366.919 51.3831ZM381.924 141.537L363.418 146.312L355.418 133.896L357.89 122.555C358.177 121.383 358.478 120.19 358.771 119.013L361.573 107.972L361.599 107.861L381.924 141.537ZM345.311 211.705L372.493 177.138L389.003 204.729L393.078 211.557L402.739 227.703L354.613 231.524L345.311 211.705ZM348.162 245.939L360.555 337.623L316.037 310.358L348.162 245.939ZM285.087 256.088V233.884L285.127 227.548L294.035 218.615C294.921 220.401 296.017 222.098 297.501 223.584C304.847 230.952 316.808 230.946 324.154 223.578C326.817 220.909 328.48 217.633 329.217 214.191L337.708 214.193L346.148 232.185L346.14 232.199L346.038 232.207L346.054 232.372L310.727 303.225L285.087 256.088ZM166.549 232.038L166.563 231.872L166.463 231.864L166.455 231.849L174.893 213.858L183.384 213.856C184.121 217.298 185.785 220.577 188.446 223.242C195.794 230.612 207.753 230.618 215.101 223.25C216.583 221.764 217.678 220.065 218.565 218.28L227.474 227.211L227.514 233.55V255.753L201.871 302.893L166.549 232.038ZM164.44 245.604L196.565 310.021L152.044 337.288L164.44 245.604ZM167.288 211.37L157.986 231.191L109.864 227.369L119.521 211.221L123.598 204.397L140.107 176.803L167.288 211.37ZM211.916 213.858C211.394 215.232 210.587 216.509 209.484 217.617C205.227 221.885 198.313 221.887 194.055 217.617C192.949 216.509 192.153 215.234 191.623 213.858H211.916ZM227.514 179.871V215.993L220.529 208.99L218.613 207.066C217.868 206.319 216.844 205.894 215.798 205.894L174.616 205.9L144.868 168.852L146.425 166.242L151.198 158.285L155.353 151.321L160.127 143.366L160.86 142.238L227.514 179.871ZM320.979 214.193C320.447 215.573 319.65 216.844 318.547 217.951C314.286 222.222 307.376 222.218 303.116 217.951C302.012 216.844 301.209 215.567 300.686 214.193H320.979ZM296.801 206.233C295.758 206.229 294.736 206.657 293.991 207.4L292.073 209.324L285.087 216.328V182.729L285.085 180.207L351.739 142.577L352.474 143.7L357.249 151.658L361.404 158.621L366.172 166.577L367.734 169.186L337.983 206.235L296.801 206.233ZM301.974 75.2457L300.267 71.5329L301.98 75.1939L301.974 75.2457ZM345.375 135.886L277.15 176.345L277.142 179.672V257.103C277.142 257.767 277.321 258.422 277.634 259.004L300.807 301.598L291.445 296.05C290.732 295.63 289.902 295.467 289.085 295.588L275.582 297.604H243.764L238.954 297.556L223.519 295.254C222.7 295.134 221.865 295.296 221.158 295.718L211.796 301.261L234.966 258.669C235.283 258.089 235.46 257.428 235.46 256.769V179.333L235.45 176.012L167.224 135.554L212.368 107.946L246.638 123.441L255.729 127.66C256.928 128.204 258.315 128.166 259.484 127.556L269.035 123.063L300.867 108.669L345.375 135.886ZM217.388 351.401L205.683 339.68V313.268L223.72 302.586L231.827 303.793C231.96 303.986 232.107 304.175 232.275 304.345L252.098 327.797L252.311 328.295V333.89L235.51 342.322L217.388 351.401ZM213.798 369.007L223.718 378.954C224.017 379.263 224.367 379.51 224.746 379.703L252.456 393.598V436.364L183.418 390.168L209.036 364.493L212.637 362.687V366.19C212.637 367.254 213.051 368.256 213.798 369.007ZM299.963 363.021L303.566 364.826L329.181 390.503L260.143 436.702V393.935L287.858 380.038C288.232 379.846 288.585 379.597 288.882 379.291L298.803 369.341C299.548 368.588 299.963 367.587 299.963 366.529V363.021ZM295.21 351.739L292.417 350.331L277.092 342.656L260.292 333.91V328.383L280.329 304.677C280.494 304.51 280.641 304.321 280.773 304.129L288.878 302.92L306.916 313.603V340.015L295.21 351.739ZM400.112 145.148L412.455 156.881L382.46 178.743L367.604 153.53L400.112 145.148ZM426.231 174.266L423.727 157.683C423.592 156.801 423.166 155.984 422.52 155.371L404.016 137.784C403.012 136.834 401.594 136.466 400.259 136.81L389.947 139.47L364.26 96.6165L376.239 46.021C376.53 44.5988 376.03 43.1547 374.933 42.2265C373.861 41.3282 372.281 41.0752 370.995 41.6011L342.246 53.122L320.539 32.9464C319.461 31.9524 317.76 31.7552 316.505 32.4823L291.358 46.8915L289.28 48.0109L259.41 12.3305C258.729 11.5178 257.693 11.0517 256.55 11.0159V11.002H255.994L255.988 11.0159C254.849 11.0517 253.813 11.5198 253.134 12.3305L223.319 47.6783L221.242 46.5568L196.096 32.1496C194.838 31.4226 193.139 31.6178 192.061 32.6117L170.356 52.7894L141.607 41.2624C140.322 40.7426 138.741 40.9935 137.667 41.8919C136.573 42.8201 136.067 44.2662 136.362 45.6844L148.339 96.2819L122.654 139.133L112.342 136.474C111.008 136.129 109.59 136.496 108.586 137.448L90.135 154.982L90.0792 155.036C90.0633 155.052 90.0533 155.078 90.0334 155.094C89.88 155.249 89.7266 155.407 89.5952 155.588C89.5055 155.715 89.4418 155.851 89.3661 155.984C89.3322 156.044 89.2924 156.1 89.2625 156.163C89.0853 156.516 88.9697 156.881 88.904 157.257C88.898 157.287 88.8781 157.317 88.8741 157.349L86.3683 173.927C86.2648 174.61 86.3385 175.303 86.5815 175.951L103.873 221.901L100.278 227.923L98.1323 231.5L98.8116 235.88L100.049 243.774L118.443 361.83L118.449 361.842C118.521 362.354 118.704 362.862 118.995 363.33C119.011 363.36 119.049 363.372 119.063 363.396C119.079 363.414 119.079 363.449 119.093 363.473L173.65 443.056C173.73 443.16 173.841 443.23 173.923 443.317C174.07 443.507 174.23 443.672 174.403 443.815C174.503 443.899 174.564 444.003 174.68 444.076L254.02 498.789L254.07 499.132C254.753 499.6 255.528 499.839 256.319 499.839C257.107 499.839 257.882 499.6 258.569 499.132L337.922 444.413C338.039 444.339 338.097 444.234 338.194 444.15C338.372 444.005 338.527 443.839 338.679 443.652C338.758 443.564 338.874 443.495 338.951 443.391L393.509 363.808C393.521 363.784 393.521 363.75 393.537 363.728C393.553 363.706 393.59 363.694 393.608 363.666C393.899 363.196 394.08 362.686 394.15 362.177L394.158 362.165L412.551 244.11L413.788 236.213L414.465 231.833L412.324 228.259L408.729 222.236L426.018 176.287C426.261 175.64 426.333 174.945 426.231 174.266Z" fill="#9C8E74"/>
</svg>
